<svg version="1.2" xmlns="http://www.w3.org/2000/svg" viewBox="0 0 315 381" width="315" height="381"><defs><filter x="-50%" y="-50%" width="200%" height="200%" id="f1"> <feGaussianBlur stdDeviation="2"/> </filter><filter x="-50%" y="-50%" width="200%" height="200%" id="f2"> <feGaussianBlur stdDeviation=".9"/> </filter><linearGradient id="P" gradientUnits="userSpaceOnUse"/><radialGradient id="g1" cx="0" cy="0" r="1" href="#P" gradientTransform="matrix(11.88,-0.5,.5,11.88,131.609,102.662)"><stop stop-color="#fefefc"/><stop offset=".76" stop-color="#fefefc"/><stop offset="1" stop-color="#d4d4d4"/></radialGradient><radialGradient id="g2" cx="0" cy="0" r="1" href="#P" gradientTransform="matrix(15.822,-0.5,.5,15.822,168.241,102.662)"><stop stop-color="#fefefc"/><stop offset=".76" stop-color="#fefefc"/><stop offset="1" stop-color="#d4d4d4"/></radialGradient><filter x="-50%" y="-50%" width="200%" height="200%" id="f3"> <feGaussianBlur stdDeviation="1.4"/> </filter><radialGradient id="g3" cx="0" cy="0" r="1" href="#P" gradientTransform="matrix(10.734,-7.801,7.801,10.734,144.545,112.771)"><stop stop-color="#020204"/><stop offset=".73" stop-color="#020204"/><stop offset="1" stop-color="#5c5c5c"/></radialGradient><filter x="-50%" y="-50%" width="200%" height="200%" id="f4"> <feGaussianBlur stdDeviation=".2"/> </filter><filter x="-50%" y="-50%" width="200%" height="200%" id="f5"> <feGaussianBlur stdDeviation=".5"/> </filter><linearGradient id="g4" x2="1" href="#P" gradientTransform="matrix(6.717,7.955,-2.658,2.245,168.028,97.833)"><stop stop-color="#949494" stop-opacity=".39"/><stop offset=".5" stop-color="#949494" stop-opacity="1"/><stop offset="1" stop-color="#949494" stop-opacity=".39"/></linearGradient><clipPath clipPathUnits="userSpaceOnUse" id="cp1"><path d="m160.76 87.42c-2.78 1.91-5.11 4.58-6.25 7.76-1.43 4-0.88 8.47 0.5 12.5 1.42 4.11 3.8 8.04 7.38 10.51 1.79 1.23 3.87 2.08 6.03 2.34 2.16 0.25 4.41-0.1 6.34-1.1 2.36-1.23 4.15-3.38 5.26-5.79 1.12-2.4 1.59-5.07 1.74-7.71 0.19-3.38-0.14-6.81-1.25-10-1.2-3.47-3.39-6.68-6.47-8.67-1.54-1-3.29-1.68-5.11-1.94-1.82-0.25-3.71-0.06-5.42 0.6-0.97 0.38-1.88 0.91-2.75 1.5z"/></clipPath><linearGradient id="g5" x2="1" href="#P" gradientTransform="matrix(21.375,12.5,-9.095,15.552,162.262,85.05)"><stop stop-color="#747474"/><stop offset=".13" stop-color="#8c8c8c"/><stop offset=".25" stop-color="#a4a4a4"/><stop offset=".5" stop-color="#d4d4d4"/><stop offset=".62" stop-color="#d4d4d4"/><stop offset="1" stop-color="#7c7c7c"/></linearGradient><filter x="-50%" y="-50%" width="200%" height="200%" id="f6"> <feGaussianBlur stdDeviation=".1"/> </filter><linearGradient id="g6" x2="1" href="#P" gradientTransform="matrix(14.231,13.435,-3.312,3.509,169.522,79.625)"><stop stop-color="#646464" stop-opacity="0"/><stop offset=".31" stop-color="#646464" stop-opacity=".58"/><stop offset=".47" stop-color="#646464" stop-opacity="1"/><stop offset=".73" stop-color="#646464" stop-opacity=".26"/><stop offset="1" stop-color="#646464" stop-opacity="0"/></linearGradient><linearGradient id="g7" x2="1" href="#P" gradientTransform="matrix(13.4,12.905,-2.97,3.084,128.239,80.729)"><stop stop-color="#646464" stop-opacity="0"/><stop offset=".31" stop-color="#646464" stop-opacity=".58"/><stop offset=".47" stop-color="#646464" stop-opacity="1"/><stop offset=".73" stop-color="#646464" stop-opacity=".26"/><stop offset="1" stop-color="#646464" stop-opacity="0"/></linearGradient><linearGradient id="g8" x2="1" href="#P" gradientTransform="matrix(5.833,10.43,-4.448,2.488,129.061,97.126)"><stop stop-color="#757574" stop-opacity="0"/><stop offset=".26" stop-color="#757574" stop-opacity="1"/><stop offset=".5" stop-color="#757574" stop-opacity="1"/><stop offset="1" stop-color="#757574" stop-opacity="0"/></linearGradient><radialGradient id="g9" cx="0" cy="0" r="1" href="#P" gradientTransform="matrix(29.126,-12.021,12.021,29.126,158.624,124.938)"><stop stop-color="#d2940a"/><stop offset=".75" stop-color="#d89c08"/><stop offset=".87" stop-color="#b67e07"/><stop offset="1" stop-color="#946106"/></radialGradient><filter x="-50%" y="-50%" width="200%" height="200%" id="f7"> <feGaussianBlur stdDeviation=".8"/> </filter><linearGradient id="g10" x2="1" href="#P" gradientTransform="matrix(56.48,-0.442,.222,28.388,121.869,123.377)"><stop stop-color="#ad780a"/><stop offset=".12" stop-color="#d89e08"/><stop offset=".25" stop-color="#edb80b"/><stop offset=".39" stop-color="#ebc80d"/><stop offset=".53" stop-color="#f5d838"/><stop offset=".77" stop-color="#f6d811"/><stop offset="1" stop-color="#f5cd31"/></linearGradient><radialGradient id="g11" cx="0" cy="0" r="1" href="#P" gradientTransform="matrix(3.23,0,0,3.23,152.684,112.283)"><stop stop-color="#3a2903"/><stop offset=".55" stop-color="#735208"/><stop offset="1" stop-color="#ac8c04"/></radialGradient><radialGradient id="g12" cx="0" cy="0" r="1" href="#P" gradientTransform="matrix(1.535,0,0,1.535,138.137,112.486)"><stop stop-color="#3a2903"/><stop offset=".55" stop-color="#735208"/><stop offset="1" stop-color="#ac8c04"/></radialGradient><filter x="-50%" y="-50%" width="200%" height="200%" id="f8"> <feGaussianBlur stdDeviation=".3"/> </filter><linearGradient id="g13" x2="1" href="#P" gradientTransform="matrix(.012,4.175,-3.41,.01,178.316,121.32)"><stop stop-color="#f5ce2d"/><stop offset="1" stop-color="#d79b08"/></linearGradient><clipPath clipPathUnits="userSpaceOnUse" id="cp2"><path d="m129.24 87.42c-1.78 0.1-3.48 0.92-4.78 2.14-1.31 1.22-2.22 2.81-2.79 4.5-1.13 3.39-0.87 7.06-0.62 10.62 0.23 3.22 0.47 6.5 1.68 9.5 0.6 1.5 1.45 2.91 2.58 4.06 1.13 1.15 2.55 2.04 4.12 2.44 1.47 0.36 3.03 0.29 4.48-0.17 1.45-0.45 2.76-1.28 3.85-2.33 1.58-1.55 2.64-3.57 3.25-5.69 0.61-2.13 0.78-4.35 0.75-6.56-0.04-2.77-0.4-5.54-1.26-8.17-0.87-2.62-2.25-5.1-4.18-7.08-0.93-0.96-1.99-1.81-3.2-2.4-1.2-0.59-2.54-0.93-3.88-0.86z"/></clipPath><radialGradient id="g14" cx="0" cy="0" r="1" href="#P" gradientTransform="matrix(7.152,-1.178,1.178,7.152,129.756,93.766)"><stop stop-color="#c8c8c8"/><stop offset="1" stop-color="#797978"/></radialGradient><clipPath clipPathUnits="userSpaceOnUse" id="cp3"><path d="m220.11 190.51c6.13 4.93 9.96 12.32 11.14 20.01 1.86 12.03-2.39 24.07-6.56 35.53-0.83 2.28-1.67 4.59-2 6.99-0.33 2.41-0.12 4.95 1.05 7.09 1.33 2.42 3.8 4.12 6.48 4.92 2.64 0.79 5.49 0.76 8.16 0.09 2.67-0.66 5.15-1.96 7.32-3.64 5.58-4.31 8.91-10.98 10.19-17.84 1.27-6.86 0.65-13.93-0.56-20.8-1.65-9.37-4.39-18.54-7.88-27.41-2.56-6.5-5.57-12.91-9.79-18.52-4.12-5.47-9.33-10.09-13.34-15.63-2.79-3.85-4.99-8.13-8.34-11.51-1.68-1.69-3.64-3.13-5.88-4-2.23-0.87-4.75-1.13-7.06-0.48-1.53 0.42-2.94 1.23-4.11 2.3-1.16 1.06-2.09 2.37-2.74 3.8-1.3 2.85-1.5 6.11-0.98 9.2 0.67 3.98 2.49 7.69 4.55 11.19 2.31 3.93 5 7.72 8.53 10.65 3.67 3.05 8.11 5.08 11.82 8.06z"/></clipPath><filter x="-50%" y="-50%" width="200%" height="200%" id="f9"> <feGaussianBlur stdDeviation=".7"/> </filter><radialGradient id="g15" cx="0" cy="0" r="1" href="#P" gradientTransform="matrix(-22.083,0,0,-22.083,102.244,183.633)"><stop stop-opacity="1"/><stop offset="1" stop-opacity=".25"/></radialGradient><filter x="-50%" y="-50%" width="200%" height="200%" id="f10"> <feGaussianBlur stdDeviation="1.1"/> </filter><radialGradient id="g16" cx="0" cy="0" r="1" href="#P" gradientTransform="matrix(27.391,0,0,27.391,177.157,195.715)"><stop stop-opacity="1"/><stop offset="1" stop-opacity=".25"/></radialGradient><radialGradient id="g17" cx="0" cy="0" r="1" href="#P" gradientTransform="matrix(10.845,0,0,10.845,140.566,190.924)"><stop stop-opacity="1"/><stop offset="1" stop-opacity=".25"/></radialGradient><filter x="-50%" y="-50%" width="200%" height="200%" id="f11"> <feGaussianBlur stdDeviation="2.2"/> </filter><linearGradient id="g18" x2="1" href="#P" gradientTransform="matrix(3.795,27.586,-27.751,3.818,201.744,288.964)"><stop stop-opacity="1"/><stop offset="1" stop-opacity="0"/></linearGradient><clipPath clipPathUnits="userSpaceOnUse" id="cp4"><path d="m281.02 296.94q-0.25 0.64-0.56 1.27-0.3 0.62-0.66 1.21-0.35 0.6-0.75 1.16-0.4 0.57-0.85 1.1c-2.62 3.11-6.27 5.17-9.9 7.02-6.18 3.15-12.6 5.92-18.42 9.71-3.89 2.55-7.49 5.53-10.86 8.75-2.87 2.75-5.6 5.68-8.83 8.01-3.25 2.35-7.02 4.06-10.99 4.65-4.83 0.73-9.82-0.21-14.3-2.16-3.13-1.37-6.15-3.32-7.96-6.23-1.81-2.92-2.23-6.49-2.23-9.92-0.01-6.08 1.12-12.09 2.18-18.08 0.88-4.97 1.72-9.95 2.26-14.97 0.98-9.13 0.97-18.36 0.32-27.52-0.11-1.53-0.24-3.08-0.01-4.6 0.23-1.52 0.85-3.04 2.02-4.04 1.08-0.93 2.52-1.34 3.94-1.41 1.42-0.08 2.83 0.14 4.24 0.35 3.31 0.48 6.65 0.86 9.89 1.71 2.04 0.54 4.03 1.26 6.07 1.81 3.4 0.92 6.97 1.37 10.47 0.96 3.77-0.44 7.43-1.86 11.22-1.77 1.56 0.04 3.1 0.33 4.59 0.8 1.51 0.48 3.01 1.16 4.12 2.3 0.85 0.86 1.44 1.94 1.88 3.07 0.66 1.67 1.01 3.45 1.17 5.25 0.13 1.58 0.11 3.19 0.41 4.76 0.49 2.57 1.85 4.92 3.53 6.93 1.68 2.01 3.69 3.72 5.69 5.41 2 1.68 4.01 3.35 6.17 4.83 1.01 0.69 2.06 1.34 3.02 2.1 0.96 0.76 1.84 1.64 2.44 2.71q0.31 0.55 0.51 1.14 0.2 0.59 0.29 1.21 0.08 0.62 0.06 1.25-0.03 0.62-0.17 1.23z"/></clipPath><linearGradient id="g19" x2="1" href="#P" gradientTransform="matrix(48.083,-77.959,74.489,45.943,207.051,336.607)"><stop stop-color="#3e2a06"/><stop offset="1" stop-color="#ad780a"/></linearGradient><clipPath clipPathUnits="userSpaceOnUse" id="cp5"><path d="m281.02 296.94q-0.25 0.64-0.56 1.27-0.3 0.62-0.66 1.21-0.35 0.6-0.75 1.16-0.4 0.57-0.85 1.1c-2.62 3.11-6.27 5.17-9.9 7.02-6.18 3.15-12.6 5.92-18.42 9.71-3.89 2.55-7.49 5.53-10.86 8.75-2.87 2.75-5.6 5.68-8.83 8.01-3.25 2.35-7.02 4.06-10.99 4.65-4.83 0.73-9.82-0.21-14.3-2.16-3.13-1.37-6.15-3.32-7.96-6.23-1.81-2.92-2.23-6.49-2.23-9.92-0.01-6.08 1.12-12.09 2.18-18.08 0.88-4.97 1.72-9.95 2.26-14.97 0.98-9.13 0.97-18.36 0.32-27.52-0.11-1.53-0.24-3.08-0.01-4.6 0.23-1.52 0.85-3.04 2.02-4.04 1.08-0.93 2.52-1.34 3.94-1.41 1.42-0.08 2.83 0.14 4.24 0.35 3.31 0.48 6.65 0.86 9.89 1.71 2.04 0.54 4.03 1.26 6.07 1.81 3.4 0.92 6.97 1.37 10.47 0.96 3.77-0.44 7.43-1.86 11.22-1.77 1.56 0.04 3.1 0.33 4.59 0.8 1.51 0.48 3.01 1.16 4.12 2.3 0.85 0.86 1.44 1.94 1.88 3.07 0.66 1.67 1.01 3.45 1.17 5.25 0.13 1.58 0.11 3.19 0.41 4.76 0.49 2.57 1.85 4.92 3.53 6.93 1.68 2.01 3.69 3.72 5.69 5.41 2 1.68 4.01 3.35 6.17 4.83 1.01 0.69 2.06 1.34 3.02 2.1 0.96 0.76 1.84 1.64 2.44 2.71q0.31 0.55 0.51 1.14 0.2 0.59 0.29 1.21 0.08 0.62 0.06 1.25-0.03 0.62-0.17 1.23z"/></clipPath><filter x="-50%" y="-50%" width="200%" height="200%" id="f12"> <feGaussianBlur stdDeviation="4.8"/> </filter><clipPath clipPathUnits="userSpaceOnUse" id="cp6"><path d="m281.02 296.94q-0.26 0.65-0.57 1.27-0.31 0.62-0.66 1.22-0.36 0.59-0.75 1.16-0.4 0.56-0.84 1.09c-2.66 3.18-6.29 5.2-9.9 7.01-6.19 3.13-12.57 5.9-18.42 9.72-3.86 2.53-7.47 5.51-10.86 8.74-2.88 2.76-5.63 5.71-8.83 8.02-3.29 2.39-7.06 4.07-10.99 4.65-4.82 0.72-9.77-0.22-14.3-2.16-3.09-1.33-6.13-3.23-7.96-6.23-1.76-2.89-2.21-6.47-2.23-9.93-0.04-6.08 1.1-12.09 2.18-18.07 0.89-4.96 1.74-9.95 2.26-14.97 0.93-9.13 0.75-18.35 0.32-27.52-0.08-1.54-0.16-3.09 0.09-4.61 0.24-1.52 0.84-3.02 1.92-4.03 1.07-1 2.52-1.43 3.94-1.49 1.42-0.07 2.83 0.2 4.24 0.43 3.3 0.53 6.64 0.87 9.89 1.71 2.04 0.53 4.03 1.26 6.07 1.81 3.41 0.93 6.97 1.37 10.47 0.96 3.76-0.45 7.43-1.87 11.22-1.77 1.55 0.04 3.09 0.34 4.59 0.8 1.5 0.47 2.99 1.14 4.12 2.3 0.83 0.85 1.43 1.93 1.88 3.07 0.66 1.66 1.01 3.45 1.16 5.24 0.14 1.59 0.12 3.2 0.42 4.76 0.5 2.65 1.87 5.03 3.56 7.03 1.69 2 3.68 3.66 5.66 5.32 2.01 1.68 4.02 3.37 6.17 4.82 1.01 0.68 2.05 1.31 3.01 2.07 0.96 0.75 1.85 1.65 2.45 2.75q0.29 0.54 0.49 1.13 0.19 0.59 0.28 1.21 0.09 0.62 0.07 1.25-0.02 0.63-0.15 1.24z"/></clipPath><filter x="-50%" y="-50%" width="200%" height="200%" id="f13"> <feGaussianBlur stdDeviation="3.8"/> </filter><linearGradient id="g20" x2="1" href="#P" gradientTransform="matrix(-1.414,12.728,-75.788,-8.42,220.176,254.652)"><stop stop-color="#f3cd0c" stop-opacity="1"/><stop offset="1" stop-color="#f3cd0c" stop-opacity="0"/></linearGradient><filter x="-50%" y="-50%" width="200%" height="200%" id="f14"> <feGaussianBlur stdDeviation="2.3"/> </filter><filter x="-50%" y="-50%" width="200%" height="200%" id="f15"> <feGaussianBlur stdDeviation=".6"/> </filter><filter x="-50%" y="-50%" width="200%" height="200%" id="f16"> <feGaussianBlur stdDeviation="2.8"/> </filter><radialGradient id="g21" cx="0" cy="0" r="1" href="#P" gradientTransform="matrix(22.038,5.905,-5.905,22.038,228.182,268.73)"><stop stop-color="#110800" stop-opacity="1"/><stop offset=".59" stop-color="#a65a00" stop-opacity=".8"/><stop offset="1" stop-color="#ff921e" stop-opacity="0"/></radialGradient><radialGradient id="g22" cx="0" cy="0" r="1" href="#P" gradientTransform="matrix(22.038,4.269,-4.269,22.038,228.182,265.351)"><stop stop-color="#110800" stop-opacity="1"/><stop offset=".59" stop-color="#a65a00" stop-opacity=".8"/><stop offset="1" stop-color="#ff921e" stop-opacity="0"/></radialGradient><clipPath clipPathUnits="userSpaceOnUse" id="cp7"><path d="m251.2 250.39c-0.41-1.1-1.12-2.08-1.99-2.87-0.87-0.79-1.9-1.39-2.98-1.85-2.17-0.92-4.52-1.26-6.84-1.7-2.18-0.41-4.34-0.9-6.52-1.27-2.28-0.39-4.62-0.64-6.87-0.13-1.96 0.44-3.78 1.46-5.27 2.82-1.49 1.36-2.65 3.06-3.49 4.89-1.47 3.23-1.93 6.86-1.65 10.4 0.21 2.64 0.88 5.35 2.61 7.34 1.4 1.61 3.39 2.62 5.43 3.22q1.33 0.39 2.7 0.58 1.36 0.18 2.74 0.17 1.39-0.02 2.75-0.25 1.36-0.23 2.67-0.65 2.17-0.73 4.19-1.8 2.02-1.07 3.85-2.44 1.82-1.37 3.41-3.02 1.58-1.65 2.88-3.52c1.14-1.65 2.12-3.45 2.56-5.4 0.33-1.49 0.35-3.08-0.18-4.52z"/></clipPath><filter x="-50%" y="-50%" width="200%" height="200%" id="f17"> <feGaussianBlur stdDeviation="1"/> </filter><radialGradient id="g23" cx="0" cy="0" r="1" href="#P" gradientTransform="matrix(7.399,3.22,-3.22,7.399,245.439,248.037)"><stop stop-color="#7c7c7c" stop-opacity="1"/><stop offset="1" stop-color="#7c7c7c" stop-opacity=".33"/></radialGradient><clipPath clipPathUnits="userSpaceOnUse" id="cp8"><path d="m251.2 250.39c-0.41-1.1-1.12-2.08-1.99-2.87-0.87-0.79-1.9-1.39-2.98-1.85-2.17-0.92-4.52-1.26-6.84-1.7-2.18-0.41-4.34-0.9-6.52-1.27-2.28-0.39-4.62-0.64-6.87-0.13-1.96 0.44-3.78 1.46-5.27 2.82-1.49 1.36-2.65 3.06-3.49 4.89-1.47 3.23-1.93 6.86-1.65 10.4 0.21 2.64 0.88 5.35 2.61 7.34 1.4 1.61 3.39 2.62 5.43 3.22q1.33 0.39 2.7 0.58 1.36 0.18 2.74 0.17 1.39-0.02 2.75-0.25 1.36-0.23 2.67-0.65 2.17-0.73 4.19-1.8 2.02-1.07 3.85-2.44 1.82-1.37 3.41-3.02 1.58-1.65 2.88-3.52c1.14-1.65 2.12-3.45 2.56-5.4 0.33-1.49 0.35-3.08-0.18-4.52z"/></clipPath><linearGradient id="g24" x2="1" href="#P" gradientTransform="matrix(3,-0.125,.06,1.442,223.512,244.425)"><stop stop-color="#7c7c7c" stop-opacity="1"/><stop offset="1" stop-color="#7c7c7c" stop-opacity=".33"/></linearGradient><clipPath clipPathUnits="userSpaceOnUse" id="cp9"><path d="m113.07 149.68q-3.9 5.16-7.89 10.24-1.07 1.35-2.14 2.7-1.06 1.35-2.14 2.69-1.07 1.35-2.15 2.69-1.08 1.34-2.16 2.67c-3.54 4.38-7.15 8.8-9.45 13.93-1.97 4.42-2.91 9.21-4.27 13.85-1.53 5.27-3.62 10.37-5.97 15.34-2.16 4.58-4.55 9.06-6.94 13.53-1.73 3.26-3.5 6.59-4.1 10.23-0.48 2.87-0.2 5.84 0.53 8.66 0.73 2.82 1.91 5.51 3.24 8.11 5.67 11.07 14.17 20.62 24.24 27.92q1.71 1.25 3.49 2.4 1.77 1.16 3.6 2.23 1.83 1.07 3.71 2.04 1.88 0.98 3.8 1.86c2.79 1.27 5.72 2.4 8.77 2.46 1.53 0.02 3.08-0.23 4.48-0.84 1.4-0.62 2.65-1.61 3.48-2.89 1.02-1.58 1.37-3.54 1.17-5.41-0.21-1.87-0.94-3.65-1.92-5.26-2.39-3.92-6.16-6.76-9.79-9.57-7.84-6.07-15.43-12.48-22.69-19.24-2.04-1.91-4.09-3.88-5.53-6.28-1.39-2.35-2.14-5.02-2.65-7.7-1.4-7.35-1.04-15.08 1.46-22.13 0.97-2.76 2.27-5.39 3.51-8.04 2.17-4.59 4.22-9.26 7.05-13.47 3.54-5.23 8.25-9.67 11.15-15.28 2.46-4.73 3.5-10.05 4.37-15.31q0.25-1.52 0.48-3.03 0.23-1.51 0.45-3.03 0.22-1.52 0.42-3.03 0.21-1.52 0.39-3.04z"/></clipPath><clipPath clipPathUnits="userSpaceOnUse" id="cp10"><path d="m72.59 246.08c1.6-0.66 3.4-0.78 5.1-0.47 1.7 0.32 3.31 1.05 4.74 2.02 2.87 1.95 4.99 4.78 7.03 7.58 4.67 6.44 9.16 13.01 13.24 19.83 3.31 5.54 6.34 11.26 10.17 16.46 2.49 3.39 5.3 6.54 7.81 9.92 2.5 3.38 4.73 7.05 5.84 11.12 1.44 5.27 0.88 11.09-1.63 15.95-1.77 3.42-4.48 6.35-7.77 8.34-3.3 1.98-7.17 3.01-11.02 2.87-6.11-0.23-11.7-3.29-17.38-5.55-11.58-4.61-24.16-6.06-36.1-9.65-3.67-1.11-7.27-2.41-10.97-3.43-1.64-0.45-3.31-0.85-4.86-1.55-1.55-0.7-3-1.75-3.86-3.22-0.67-1.13-0.95-2.47-0.93-3.78 0.02-1.32 0.33-2.62 0.77-3.86 0.9-2.47 2.35-4.71 3.32-7.15 1.6-3.99 1.89-8.39 1.67-12.68-0.21-4.29-0.91-8.55-1.2-12.83-0.13-1.92-0.18-3.86 0.18-5.74 0.37-1.88 1.18-3.72 2.56-5.05 1.27-1.23 2.96-1.96 4.7-2.32 1.73-0.36 3.51-0.38 5.28-0.34 1.77 0.04 3.54 0.14 5.3-0.01 1.77-0.14 3.54-0.54 5.07-1.42 1.46-0.83 2.66-2.07 3.65-3.43 0.99-1.36 1.78-2.85 2.6-4.32 0.82-1.46 1.67-2.93 2.75-4.22 1.07-1.3 2.39-2.42 3.94-3.07z"/></clipPath><linearGradient id="g25" x2="1" href="#P" gradientTransform="matrix(47.73,80.08,-65.65,39.129,58.146,266.603)"><stop stop-color="#b98309"/><stop offset="1" stop-color="#382605"/></linearGradient><filter x="-50%" y="-50%" width="200%" height="200%" id="f18"> <feGaussianBlur stdDeviation="3.9"/> </filter><filter x="-50%" y="-50%" width="200%" height="200%" id="f19"> <feGaussianBlur stdDeviation="2.4"/> </filter><filter x="-50%" y="-50%" width="200%" height="200%" id="f20"> <feGaussianBlur stdDeviation=".4"/> </filter><linearGradient id="g26" x2="1" href="#P" gradientTransform="matrix(15.026,28.284,-2.006,1.065,106.053,287.286)"><stop stop-color="#ebc40c" stop-opacity="1"/><stop offset="1" stop-color="#ebc40c" stop-opacity="0"/></linearGradient></defs><style>.a{fill:#020204}.b{fill:#fdfdfb}.c{opacity:.3;filter:url(#f1)}.d{opacity:.3;filter:url(#f2)}.e{fill:url(#g1)}.f{fill:url(#g2)}.g{opacity:.3;filter:url(#f3)}.h{fill:url(#g3)}.i{filter:url(#f1);fill:#7c7c7c}.j{filter:url(#f4);fill:#141413}.k{filter:url(#f5);fill:url(#g4)}.l{fill:url(#g5)}.m{filter:url(#f6);fill:url(#g6)}.n{filter:url(#f6);fill:url(#g7)}.o{filter:url(#f5);fill:url(#g8)}.p{fill:url(#g9)}.q{filter:url(#f2);fill:#d9b30d}.r{filter:url(#f7);fill:#604405}.s{fill:url(#g10)}.t{filter:url(#f7);fill:#f6da4a}.u{opacity:.8;filter:url(#f6);fill:url(#g11)}.v{opacity:.8;filter:url(#f6);fill:url(#g12)}.w{filter:url(#f8);fill:url(#g13)}.x{fill:url(#g14)}.y{filter:url(#f3);fill:#838384}.z{opacity:.3;filter:url(#f9);fill:url(#g15)}.A{opacity:.4;filter:url(#f10);fill:url(#g16)}.B{opacity:.2;filter:url(#f7);fill:url(#g17)}.C{opacity:.1;filter:url(#f3)}.D{filter:url(#f2);fill:#838384}.E{opacity:.2;filter:url(#f11);fill:url(#g18)}.F{fill:url(#g19)}.G{filter:url(#f12);fill:#cd8907}.H{filter:url(#f13);fill:#f5c021}.I{filter:url(#f5);fill:url(#g20)}.J{opacity:.7;filter:url(#f14);fill:#7c7c7c}.K{opacity:.3;filter:url(#f15);fill:#7c7c7c}.L{opacity:.3;filter:url(#f16);fill:url(#g21)}.M{opacity:.3;filter:url(#f10);fill:url(#g22)}.N{filter:url(#f17);fill:url(#g23)}.O{filter:url(#f17);fill:url(#g24)}.P{opacity:.9;filter:url(#f10);fill:#7c7c7c}.Q{fill:url(#g25)}.R{filter:url(#f18);fill:#d99a03}.S{filter:url(#f19);fill:#f5bd0c}.T{filter:url(#f20);fill:url(#g26)}</style><path class="a" d="m215.5 146.8c3.3 7.1 6.9 14 10.2 21.1 6.2 13.7 10.9 28.1 12.9 43 1.9 14.9 1.1 30.3-3.6 44.5-5.3 16.1-15.2 30.5-27.5 42.2-14.4 13.9-33 24.6-53 25.4-13.1 0.5-26.1-3.2-37.7-9.3-9.7-5.1-18.5-12-25.6-20.3-7.1-8.4-12.3-18.4-14.8-29.1-3-13.2-1.6-27.2 2.9-40 3.3-9.1 8.1-17.5 11.5-26.6 3.7-9.9 5.8-20.4 10.8-29.7 4.5-8.5 11.2-15.7 14.8-24.6 2.1-5.3 3-11 4.4-16.6 1.4-5.5 3.3-11.1 7.1-15.4 4.5-5.2 11.3-8 18.2-8.8 6.8-0.8 13.8 0.2 20.5 1.8q2 0.4 4 0.9 2 0.6 3.9 1.1 2 0.6 4 1.2 1.9 0.7 3.9 1.4c4.4 1.5 8.8 3.3 12.6 6.1 5.2 3.7 9.1 8.9 12.3 14.4 3.2 5.6 5.6 11.5 8.2 17.3z"/><path class="a" d="m158 323.1c5.5 0.3 11 0.9 16.5 1.7q7.2 1.1 14.2 2.8c7.4 1.8 14.8 4.1 22.4 4.3 2 0 4-0.1 5.9-0.5 2-0.4 3.9-1.2 5.4-2.5 2.4-1.8 3.8-4.6 4.4-7.5 0.5-3 0.2-6-0.7-8.9-1.7-5.7-5.4-10.6-8.4-15.7-1.7-2.9-3.3-6-5.2-8.8-1.9-2.8-4.1-5.5-7-7.3-4-2.6-8.9-3.4-13.6-3-4.7 0.5-9.2 2.2-13.4 4.4-5.9 3-11.4 7.2-14.6 13-1.1 2-1.9 4.2-2.9 6.3-0.9 2.1-2 4.1-3.6 5.8-1.8 1.8-4.1 3.1-6 4.8-0.9 0.9-1.7 2-2.2 3.2-0.5 1.1-0.6 2.5-0.2 3.7 0.3 0.8 0.9 1.6 1.5 2.1 0.7 0.6 1.5 1 2.3 1.3 1.7 0.6 3.5 0.7 5.2 0.8z"/><path class="a" d="m141.7 322.7c-4.6 0.2-9.1 1-13.6 1.9q-1.6 0.3-3.2 0.7-1.6 0.3-3.2 0.7-1.6 0.4-3.2 0.8-1.6 0.4-3.2 0.8c-7.2 1.9-14.3 4.1-21.7 4.3-2 0-3.9-0.1-5.8-0.5-1.9-0.5-3.8-1.2-5.3-2.5-2.3-1.8-3.8-4.6-4.3-7.5-0.6-3-0.2-6 0.6-8.8 1.7-5.7 5.3-10.6 8.3-15.8 1.7-2.9 3.2-5.9 5-8.8 1.9-2.8 4.1-5.5 6.9-7.3 3.8-2.6 8.6-3.4 13.2-3 4.6 0.5 9 2.2 13 4.4 5.7 3.1 11 7.4 14.3 13 2.3 3.9 3.6 8.4 6.3 12.1 1.5 2 3.3 3.7 4.5 5.8 0.6 1.1 1.1 2.2 1.2 3.5 0.1 1.2-0.2 2.5-0.9 3.5-0.4 0.7-1.1 1.2-1.8 1.6-0.7 0.4-1.5 0.7-2.2 0.8-1.6 0.4-3.3 0.3-4.9 0.3zm-25.6-190.8c-0.7-7.8-0.5-15.6-0.8-23.4-0.3-7.4-1-14.9-0.7-22.4 0.2-7.6 1.5-15.3 4.9-22.1 3.4-6.8 8.9-12.6 15.6-16.2 6.3-3.4 13.6-4.9 20.7-4.8 9.7 0.1 19.5 3 27.4 8.7 4.9 3.6 9 8.2 12.3 13.4 2.8 4.3 5 9.1 6.3 14.2 2.8 10.2 2.2 21.1 2.7 31.8 0.5 10 2.1 20.1 1.6 30.2-0.1 2.2-0.4 4.4-1.3 6.4-1 1.9-2.6 3.5-4.5 4.5-1.8 1.1-3.9 1.7-6 2-4.2 0.7-8.6 0.2-12.8 0.6-6.2 0.6-12.1 2.9-18.2 3.8-7.3 1.2-14.8 0.4-22.2 0.1-2.9-0.1-5.9-0.2-8.9-0.6-2.9-0.3-5.8-1-8.4-2.4-1.6-0.9-3.1-2-4.3-3.4-1.2-1.3-2.2-3-2.6-4.8-0.7-2.6-0.3-5.4-0.3-8.1 0-2.5-0.3-5-0.5-7.5z"/><path class="b" d="m127.7 128.9c-1 1.3-1.7 2.9-2.1 4.5-0.4 1.6-0.6 3.3-0.7 5-0.1 3.3 0.1 6.7-0.8 10-0.9 3.4-3 6.4-5.1 9.4-3.6 5-7.3 10.2-9 16.2q-0.4 1.3-0.7 2.7-0.3 1.4-0.4 2.8-0.2 1.4-0.1 2.8 0 1.4 0.1 2.8-1.5 2.2-2.9 4.5-1.4 2.3-2.7 4.7-1.3 2.3-2.5 4.7-1.2 2.4-2.3 4.9c-4.4 9.9-7.4 20.5-8.5 31.3-1.3 13.3 0.4 26.9 5.7 39.1 3.7 8.9 9.4 17 16.6 23.3q1.4 1.2 2.9 2.3 1.4 1.1 3 2.1 1.5 1 3.1 2 1.6 0.9 3.2 1.7c15.2 7.5 34 7.5 49-0.5 7.8-4.2 14.4-10.3 20.8-16.4 3.8-3.7 7.6-7.5 10.6-12 5.6-8.6 7.5-19 8.8-29.2 2.1-17.9 2.2-36.7-5.7-52.9q-1-2.1-2.1-4.1-1.2-2-2.6-3.9-1.3-1.9-2.8-3.6-1.4-1.8-3-3.5-0.5-2.9-1.1-5.8-0.6-2.9-1.5-5.7-0.8-2.8-1.9-5.6-1-2.8-2.2-5.4c-2.4-5.2-5.3-10.1-7.5-15.3-0.9-2.2-1.7-4.4-2.7-6.5-1-2.1-2.2-4.1-3.9-5.7-1.7-1.7-3.9-2.8-6.2-3.6-2.2-0.7-4.6-1.1-7-1.2-4.8-0.2-9.5 0.4-14.3 0.2-3.8-0.1-7.6-0.8-11.4-0.6-1.9 0.1-3.8 0.5-5.5 1.2-1.8 0.7-3.4 1.8-4.6 3.3z"/><path class="c" d="m125.4 146.7c1.7 4.9 5.1 9.1 9.2 12.4 1.3 1.1 2.7 2.1 4.3 2.8 1.6 0.7 3.4 1.1 5.1 1 1.7-0.1 3.3-0.8 4.8-1.6 1.5-0.9 2.8-1.9 4.3-2.8 2.4-1.6 5.1-2.8 7.6-4.2 3.1-1.7 6.1-3.6 8.7-6 1.2-1.1 2.3-2.3 3.6-3.2 1.3-0.9 2.9-1.6 4.5-1.5 1.2 0.1 2.3 0.6 3.5 0.9 0.6 0.1 1.2 0.2 1.8 0.1 0.6-0.1 1.2-0.4 1.6-0.8 0.5-0.5 0.7-1.3 0.7-2.1 0-0.7-0.3-1.4-0.6-2.1-0.7-1.3-1.8-2.4-2.2-3.8-0.4-1.2-0.3-2.6-0.3-3.9 0-1.3 0-2.7-0.6-3.9-0.5-0.9-1.2-1.6-2.1-2-0.9-0.5-1.9-0.7-2.9-0.8-2-0.2-4 0.2-6 0.3-2.7 0.1-5.3-0.2-8 0-3.3 0.2-6.5 1.1-9.9 1.1-3.7 0-7.5-1.2-11.3-0.6-1.6 0.2-3.1 0.8-4.6 1.3-1.6 0.5-3.2 1-4.8 1-1.8 0-3.6-0.7-5.5-0.8-0.9-0.1-1.8 0-2.7 0.3-0.9 0.3-1.6 0.9-2.1 1.7q0 0.2-0.1 0.4-0.1 0.2-0.1 0.4-0.1 0.2-0.1 0.4 0 0.2 0 0.4-0.1 0.8 0.1 1.5c0.3 1.1 0.8 2 1.1 3 1.4 3.6 1.7 7.5 3 11.1z"/><path class="d" d="m120.6 132.6q1.3 0.8 2.4 1.6 1.2 0.9 2.3 1.8 1.1 0.9 2.1 1.9 1.1 1 2 2.1c2.3 2.7 4.3 5.7 7.3 7.6 2.1 1.4 4.7 2.2 7.3 2.4 3 0.3 6.1-0.1 9.1-0.9 2.7-0.8 5.3-1.8 7.8-3.2 4.6-2.6 8.4-6.4 13.5-8.1 1.1-0.4 2.2-0.7 3.3-1.1 1.1-0.5 2.1-1.2 2.6-2.2 0.5-0.9 0.4-2 0.6-3 0.2-1.1 0.6-2.2 0.8-3.3 0.2-1.1 0.2-2.3-0.3-3.3-0.4-0.8-1.2-1.5-2.1-1.9-0.9-0.4-1.9-0.6-2.9-0.7-2-0.1-4 0.4-6 0.6-2.7 0.2-5.3-0.1-8 0-3.3 0-6.5 0.7-9.9 0.9-3.7 0.1-7.5-0.4-11.3-0.5-1.6-0.1-3.2-0.1-4.8 0.2-1.7 0.3-3.2 0.8-4.6 1.6-1.3 0.8-2.4 1.9-3.6 2.8-0.6 0.5-1.3 1-2 1.3-0.7 0.3-1.4 0.5-2.2 0.6-0.4 0-0.8 0-1.2 0q-0.3 0.1-0.5 0.1-0.3 0.1-0.5 0.2-0.2 0.2-0.4 0.3-0.2 0.2-0.3 0.4-0.2 0.2-0.3 0.4-0.1 0.2-0.2 0.4 0 0.3 0 0.5 0 0.3 0 0.5z"/><path class="e" d="m129.2 87.4c-1.7 0.1-3.4 0.9-4.7 2.2-1.3 1.2-2.3 2.8-2.8 4.5-1.2 3.3-0.9 7-0.6 10.6 0.2 3.2 0.4 6.5 1.6 9.5 0.6 1.5 1.5 2.9 2.6 4 1.1 1.2 2.6 2.1 4.1 2.5 1.5 0.3 3.1 0.3 4.5-0.2 1.5-0.4 2.8-1.3 3.9-2.3 1.5-1.6 2.6-3.6 3.2-5.7 0.6-2.1 0.8-4.4 0.8-6.6-0.1-2.7-0.4-5.5-1.3-8.1-0.9-2.7-2.2-5.1-4.2-7.1-0.9-1-2-1.8-3.2-2.4-1.2-0.6-2.5-0.9-3.9-0.9z"/><path class="f" d="m160.8 87.4c-2.8 1.9-5.1 4.6-6.3 7.8-1.4 4-0.9 8.5 0.5 12.5 1.4 4.1 3.8 8 7.4 10.5 1.8 1.2 3.9 2.1 6 2.3 2.2 0.3 4.4-0.1 6.4-1.1 2.3-1.2 4.1-3.3 5.2-5.8 1.1-2.4 1.6-5 1.8-7.7 0.2-3.3-0.2-6.8-1.3-10-1.2-3.4-3.4-6.6-6.5-8.6-1.5-1-3.3-1.7-5.1-2-1.8-0.2-3.7 0-5.4 0.6-1 0.4-1.9 0.9-2.7 1.5z"/><path class="g" d="m128.7 116.2q-0.7 0.6-1.4 1.1-0.6 0.6-1.3 1.2-0.6 0.6-1.2 1.2-0.7 0.6-1.3 1.2c-0.9 0.9-1.8 1.9-2.2 3.1-0.4 1.1-0.3 2.3-0.5 3.4 0 0.4-0.1 0.7-0.1 1.1q0 0.3 0.1 0.6 0 0.3 0.2 0.5c0.3 0.3 0.6 0.4 0.9 0.5 0.3 0 0.6 0 1 0.1 1.4 0.1 2.8 0.8 4 1.7 1.2 0.8 2.3 1.8 3.5 2.5 2.8 1.8 6 2.5 9.2 2.7 3.3 0.1 6.5-0.4 9.7-1 2.5-0.5 5-1.1 7.4-2.1 3.7-1.4 7-3.6 10.1-6 1.5-1.1 2.9-2.2 4.2-3.4 0.4-0.4 0.8-0.9 1.3-1.3 0.5-0.3 1-0.7 1.5-0.9 0.9-0.3 1.9-0.2 2.8 0 0.7 0.1 1.4 0.3 2.1 0.2q0.1 0 0.2 0 0.2 0 0.3 0 0.1-0.1 0.2-0.1 0.2 0 0.3-0.1 0.5-0.2 0.8-0.6 0.1-0.1 0.2-0.3 0.1-0.1 0.2-0.3 0-0.1 0-0.3 0.1-0.2 0.1-0.4 0-0.1-0.1-0.3 0-0.2 0-0.3-0.1-0.2-0.1-0.4-0.1-0.1-0.2-0.3c-0.5-0.7-1.3-1.3-2.1-1.7-1.1-0.5-2.4-0.7-3.6-1q-1.4-0.3-2.8-0.8-1.4-0.4-2.7-0.9-1.4-0.5-2.7-1-1.4-0.6-2.6-1.3c-1.8-0.8-3.4-1.8-5.1-2.7-1.8-0.9-3.5-1.8-5.4-2.4-4.2-1.2-8.8-0.8-13 0.6q-1.7 0.6-3.4 1.5-1.6 0.8-3.1 1.8-1.5 1.1-2.9 2.3-1.4 1.2-2.5 2.6z"/><path class="h" d="m137.6 110.9c1.8-2 3-4.4 4.7-6.4 0.8-1.1 1.8-2 3-2.6 1.1-0.7 2.5-1.1 3.8-1 1.5 0.2 2.8 0.9 3.9 1.9 1.1 1 1.9 2.3 2.5 3.6 0.6 1.3 1.1 2.7 2 3.8 1 1.2 2.3 2 3.5 2.9 0.6 0.5 1.1 1 1.6 1.6 0.5 0.5 0.8 1.2 1 2q0.1 0.3 0.1 0.5 0 0.3 0 0.6-0.1 0.3-0.1 0.6-0.1 0.3-0.2 0.5-0.1 0.3-0.2 0.6-0.2 0.2-0.3 0.5-0.2 0.2-0.4 0.4-0.1 0.2-0.3 0.4c-1.2 1.1-2.7 1.7-4.2 1.9-3 0.4-6.1-0.5-9.2-0.4-3.1 0.1-6.1 1.2-9.2 1.1-1.6-0.1-3.1-0.5-4.4-1.3q-0.3-0.2-0.5-0.4-0.2-0.2-0.4-0.4-0.2-0.2-0.4-0.4-0.2-0.3-0.3-0.5-0.2-0.3-0.3-0.5-0.1-0.3-0.2-0.6-0.1-0.3-0.1-0.5-0.1-0.3-0.1-0.6c0-0.8 0.2-1.5 0.5-2.2 0.3-0.7 0.7-1.3 1.1-1.9 1-1.1 2.1-2.1 3.1-3.2z"/><path class="i" d="m172.3 55.9c-2.6 1.8-1.5 4.1-0.4 6.3 1.1 2.3-2.4 8.8-2.4 9.1-0.1 0.3 6.9-3.3 8.8-5.6 2.2-2.8 7.9 3.7 7.6 2.7 0-1.7-11.1-14.3-13.6-12.5z"/><path class="a" d="m167.2 95.8q-0.4 0.1-0.8 0.1-0.4 0.1-0.8 0.2-0.3 0.2-0.7 0.3-0.3 0.2-0.7 0.4-0.3 0.2-0.6 0.5-0.3 0.2-0.6 0.5-0.3 0.3-0.5 0.6-0.3 0.3-0.5 0.6c-1.2 1.7-1.7 3.8-1.8 5.9-0.1 1.6 0.1 3.2 0.6 4.7 0.5 1.5 1.4 2.8 2.6 3.8q0.5 0.4 1 0.7 0.5 0.3 1.1 0.6 0.6 0.2 1.2 0.3 0.6 0.1 1.2 0.2 0.6 0 1.2-0.1 0.6 0 1.1-0.2 0.6-0.2 1.2-0.4 0.5-0.3 1-0.6c1.1-0.8 1.9-1.8 2.5-2.9 0.6-1.1 1-2.4 1.2-3.7 0.3-2.2-0.1-4.6-1.1-6.6-1-2-2.8-3.7-4.9-4.4-1-0.4-1.9-0.5-2.9-0.5z"/><path class="j" d="m169.7 102.7c-0.9 0.3-2.3 0.1-2.6 1-0.3 0.5 0 1.3 0.6 1.5 1 0.4 2.6-0.3 3-1.4 0.2-0.4-0.1-1.1-0.5-1.3-0.2-0.1-0.4 0.1-0.5 0.2z"/><path class="k" d="m173.6 104.9c1.2-1.1-0.8-4.2-2.3-5.5-1.2-0.9-4.4-1.8-4.3-0.8 0.2 0.9 1.6 2.2 2.6 3.2 1.2 1.2 3.5 3.7 4 3.1z"/><g clip-path="url(#cp1)"><path class="l" d="m150.3 97.6q0.9-0.8 1.8-1.4 1-0.7 2-1.2 1-0.6 2.1-1.1 1.1-0.4 2.2-0.8c6.1-1.8 13-1.1 18.4 2.3 1.8 1.2 3.5 2.7 5.2 4 1.7 1.4 3.6 2.7 5.6 3.4 1.2 0.4 2.4 0.6 3.5 0.5q0.4 0 0.8-0.1 0.4-0.1 0.8-0.3 0.4-0.1 0.7-0.3 0.4-0.2 0.7-0.4 0.4-0.2 0.7-0.5 0.3-0.3 0.5-0.6 0.3-0.3 0.6-0.6 0.2-0.3 0.4-0.7c1.1-1.8 1.5-4 1.3-6.2-0.4-4.2-2.8-8-4.8-11.8-0.7-1.2-1.3-2.4-2-3.5-2.4-3.4-6.1-5.6-10-6.9-3.9-1.4-8.1-1.8-12.2-2.3-1.8-0.3-3.6-0.5-5.5-0.3-2.1 0.3-4 1.1-6.1 1.6-1 0.3-2 0.5-2.9 0.7-1 0.3-1.9 0.7-2.7 1.3-1.2 0.9-1.9 2.3-2.2 3.7-0.3 1.5-0.2 3 0 4.4 0.5 2.9 1.5 5.7 1.4 8.7 0 2-0.7 4-0.6 6q0 0.9 0.3 1.7"/></g><path class="m" d="m170.4 79.2q-0.7 0.9-1.2 2 0.8 0.1 1.6 0.4 0.7 0.2 1.5 0.6 0.8 0.3 1.5 0.7 0.7 0.4 1.4 0.8c3.5 2.4 6.2 5.8 8.1 9.6q0.2-0.1 0.4-0.3 0.1-0.2 0.3-0.4 0.1-0.2 0.2-0.4 0.2-0.2 0.3-0.5c-1.9-3.9-4.6-7.5-8.3-10-1.8-1.2-3.7-2-5.8-2.5z"/><path class="n" d="m129 81.1q-0.3 0-0.7 0.1-0.2 0-0.4 0 0.5 0.1 1 0.1 0.5 0.1 1 0.3 0.6 0.1 1.1 0.3 0.5 0.2 0.9 0.4c1.8 0.8 3.3 1.9 4.7 3.1 2.5 2.4 4.3 5.3 5.6 8.4q-0.1-0.9-0.3-1.8-0.2-0.8-0.5-1.7-0.2-0.8-0.5-1.6-0.4-0.8-0.8-1.6-0.1-0.2-0.3-0.4-0.2-0.2-0.4-0.5-0.2-0.2-0.4-0.4-0.2-0.2-0.4-0.4c-1.4-1.2-2.9-2.3-4.7-3.1-1.5-0.7-3.2-1.1-4.9-1.2z"/><path class="a" d="m124.9 102.2c-0.3 2.2-0.3 4.6 0.4 6.7 0.5 1.4 1.4 2.7 2.4 3.8 0.7 0.7 1.4 1.4 2.3 1.8 0.9 0.4 1.9 0.6 2.9 0.4 0.9-0.2 1.6-0.8 2.2-1.5 0.6-0.7 1-1.6 1.2-2.4 0.8-2.6 0.7-5.4-0.1-8-0.6-1.8-1.5-3.6-3-4.9-0.7-0.6-1.6-1.1-2.5-1.3-0.9-0.2-1.9-0.1-2.7 0.3-0.9 0.4-1.7 1.2-2.2 2.1-0.4 0.9-0.7 2-0.9 3z"/><path class="o" d="m129.7 100.6c0.2 0.6 1.1 0.8 1.5 1.3 0.4 0.5 0.9 1 1.1 1.7 0.5 1.1-0.4 2.9 0.5 3.7 0.3 0.3 0.9 0.3 1.2 0 1.2-1 0.9-3.1 0.4-4.6-0.4-1.4-1.4-2.6-2.6-3.3-0.6-0.3-1.5-0.5-2-0.1-0.3 0.3-0.3 0.9-0.1 1.3z"/><path class="p" d="m120.8 130.1q0.1 0.4 0.3 0.8c0.3 0.5 0.6 0.8 1.1 1.1 0.4 0.4 0.8 0.6 1.3 0.9 2.3 1.4 4.2 3.5 5.9 5.7 2.3 2.9 4.3 6.2 7.3 8.3 2.1 1.5 4.7 2.3 7.3 2.6 3 0.3 6.1-0.2 9.1-1.1 2.7-0.8 5.3-1.9 7.8-3.4 4.6-2.8 8.4-7 13.5-8.8 1.1-0.4 2.2-0.7 3.3-1.2 1.1-0.5 2.1-1.3 2.6-2.4 0.5-1 0.4-2.2 0.6-3.3 0.2-1.2 0.6-2.3 0.8-3.5 0.2-1.2 0.2-2.5-0.3-3.6-0.4-0.9-1.2-1.6-2.1-2.1-0.9-0.4-1.9-0.7-2.9-0.7-2-0.1-4 0.4-6 0.6-2.7 0.2-5.3-0.1-8 0-3.3 0.1-6.5 0.8-9.9 1-3.7 0.2-7.5-0.4-11.3-0.6-1.6 0-3.2 0-4.9 0.3-1.6 0.2-3.2 0.8-4.5 1.7-1.3 0.9-2.4 2.1-3.6 3.2-0.6 0.5-1.2 1-1.9 1.3-0.7 0.4-1.5 0.6-2.3 0.6-0.4 0-0.9-0.1-1.2 0q-0.4 0.2-0.7 0.4-0.1 0.1-0.1 0.2-0.1 0-0.1 0.1-0.1 0.1-0.2 0.2 0 0.1-0.1 0.1-0.1 0.2-0.2 0.4-0.1 0.2-0.2 0.4-0.1 0.2-0.2 0.4-0.1 0.2-0.2 0.4z"/><path class="q" d="m135.6 134.2q-0.2 0.6-0.2 1.2 0 0.6 0 1.2 0.1 0.6 0.3 1.2 0.2 0.6 0.5 1.1 0.3 0.6 0.7 1 0.4 0.5 0.9 0.9 0.5 0.4 1 0.7 0.5 0.3 1.1 0.5c2 0.7 4.2 0.3 6.1-0.6 1-0.6 2-1.4 2.6-2.4q0.2-0.2 0.3-0.4 0.1-0.2 0.1-0.4 0.1-0.2 0.2-0.5 0-0.2 0-0.4 0.1-0.2 0.1-0.5 0-0.2 0-0.4-0.1-0.2-0.1-0.5-0.1-0.2-0.1-0.4-0.1-0.2-0.2-0.4-0.2-0.3-0.3-0.5-0.2-0.2-0.3-0.3-0.2-0.2-0.4-0.4-0.2-0.1-0.4-0.3-0.2-0.1-0.4-0.2-0.2-0.2-0.5-0.3-0.2-0.1-0.4-0.1c-1.3-0.4-2.6-0.5-4-0.4q-0.7 0-1.5 0.1-0.7 0.1-1.5 0.2-0.7 0.1-1.4 0.2-0.8 0.1-1.5 0.3"/><path class="r" d="m129.1 121.7c-1.4 0.8-2.7 1.7-3.9 2.6-0.7 0.5-1.4 1-1.7 1.7-0.2 0.5-0.3 1.1-0.3 1.7 0 0.5 0 1.1-0.1 1.7 0 0.4-0.1 0.7-0.1 1.1q0 0.3 0 0.6 0 0.1 0.1 0.2 0 0 0 0.1 0.1 0.1 0.1 0.1 0.1 0.1 0.1 0.1c0.2 0.2 0.4 0.3 0.7 0.4q0.3 0.1 0.7 0.2c1.2 0.2 2.2 1 3.1 1.8 0.9 0.8 1.7 1.7 2.6 2.4 2.6 2.1 5.9 3 9.2 3 3.3 0.1 6.5-0.6 9.7-1.3 2.5-0.6 5-1.2 7.4-2.1 3.7-1.3 7.1-3.4 10.1-6 1.4-1.2 2.6-2.5 4.2-3.4 1.3-0.9 2.8-1.4 4.2-2.2q0.1-0.1 0.3-0.3 0.1 0 0.1 0 0-0.1 0.1-0.1 0 0 0-0.1 0.1 0 0.1-0.1 0-0.1 0-0.2 0.1 0 0.1-0.1 0-0.1 0-0.2-0.1-0.1-0.1-0.2 0-0.1 0-0.2-0.1 0-0.1-0.1-0.1-0.1-0.1-0.2-0.1-0.1-0.1-0.1-0.1-0.1-0.2-0.2 0-0.1-0.1-0.1-0.1-0.1-0.2-0.2 0 0-0.1-0.1c-1.4-1.2-3.4-1.7-5.2-1.8-1.9-0.2-3.8-0.1-5.6-0.4-1.8-0.3-3.4-0.9-5.1-1.4q-0.7-0.3-1.3-0.4-0.7-0.2-1.4-0.4-0.7-0.2-1.3-0.3-0.7-0.1-1.4-0.3c-4.3-0.7-8.7-0.5-13 0.4q-1.5 0.3-3 0.7-1.5 0.5-2.9 1-1.5 0.6-2.9 1.3-1.4 0.7-2.7 1.4z"/><path class="s" d="m128.7 117.2q-0.8 0.5-1.5 1-0.6 0.6-1.3 1.2-0.6 0.6-1.2 1.2-0.6 0.6-1.2 1.3c-0.8 1-1.6 2.2-2 3.4-0.3 1-0.5 2.1-0.7 3.1 0 0.4-0.1 0.8-0.1 1.1q0 0.3 0 0.6 0.1 0.3 0.3 0.5c0.3 0.3 0.6 0.4 0.9 0.5 0.3 0 0.6 0 1 0.1 1.4 0.1 2.8 0.8 4 1.7 1.2 0.8 2.3 1.8 3.5 2.5 2.8 1.8 6 2.5 9.2 2.7 3.3 0.1 6.5-0.4 9.7-1 2.5-0.5 5-1.1 7.4-2.1 3.7-1.4 7-3.6 10.1-6 1.5-1.1 2.9-2.2 4.2-3.4 0.4-0.4 0.8-0.9 1.3-1.3 0.5-0.3 1-0.7 1.5-0.9 0.9-0.3 1.9-0.2 2.8 0 0.7 0.1 1.4 0.3 2.1 0.2q0.1 0 0.2 0 0.2 0 0.3 0 0.1-0.1 0.2-0.1 0.2 0 0.3-0.1 0.5-0.2 0.8-0.6 0.1-0.1 0.2-0.3 0.1-0.1 0.2-0.3 0-0.1 0-0.3 0.1-0.2 0.1-0.4 0-0.1-0.1-0.3 0-0.2 0-0.3-0.1-0.2-0.1-0.4-0.1-0.1-0.2-0.3c-0.5-0.7-1.3-1.3-2.1-1.7-1.1-0.5-2.4-0.7-3.6-1q-1.4-0.3-2.8-0.8-1.4-0.4-2.7-0.9-1.4-0.5-2.7-1-1.4-0.6-2.6-1.3c-1.8-0.8-3.4-1.8-5.1-2.7-1.8-0.9-3.5-1.8-5.4-2.4-4.2-1.2-8.8-0.8-13 0.6q-1.7 0.6-3.4 1.5-1.6 0.8-3.1 1.8-1.5 1.1-2.9 2.3-1.4 1.2-2.5 2.6z"/><path class="t" d="m158.3 118.1q-0.1-0.1-0.2-0.2-0.1 0-0.3-0.1-0.1-0.1-0.2-0.2-0.1 0-0.3 0-0.1-0.1-0.2-0.1-0.2 0-0.3 0-0.1 0-0.3 0-0.1 0-0.2 0c-0.8 0.1-1.4 0.5-2 0.9-1.7 1.2-3.2 2.7-4.5 4.3-1.8 2.1-3.2 4.5-3.7 7.2-0.1 0.5-0.1 1-0.1 1.4 0.1 0.5 0.2 0.9 0.6 1.3 0.3 0.2 0.6 0.4 1.1 0.5q0.6 0.1 1.2-0.2c0.7-0.2 1.4-0.8 2-1.3 3.3-3 6.3-6.6 7.5-10.9 0.1-0.4 0.3-0.8 0.2-1.3 0-0.4-0.1-0.9-0.3-1.3z"/><path class="u" d="m150.3 112c0.2 0.7 1.4 0.6 2.1 0.9 0.6 0.3 1.1 1 1.8 1 0.6 0.1 1.6-0.2 1.7-0.8 0.1-0.9-1.1-1.4-1.9-1.7-1.1-0.4-2.4-0.6-3.3-0.1-0.3 0.1-0.5 0.4-0.4 0.7z"/><path class="v" d="m138.8 111.5c-0.8-0.3-2.3 1.3-1.8 2.1 0.1 0.2 0.5 0.5 0.8 0.4 0.4-0.3 0.7-1.1 1.2-1.4 0.3-0.2 0.2-1-0.2-1.1z"/><path class="w" d="m178 126.8c-1.6 0-2.7-1.6-2.5-3.6 0.3-1.9 1.7-3.5 3.3-3.5 1.6 0 2.7 1.6 2.4 3.5-0.2 2-1.6 3.6-3.2 3.6z"/><g clip-path="url(#cp2)"><path class="x" d="m125.4 94.6c2.7-1.6 6-2 9.1-1.7 3.1 0.3 6.1 1.2 9.1 2 2.2 0.6 4.5 1.2 6.5 2.2 2.1 1 4 2.4 5.2 4.4q0.2 0.5 0.5 0.9c0.2 0.4 0.4 0.7 0.7 0.9 0.3 0.2 0.7 0.3 1.1 0.3q0.2 0 0.5-0.1 0-0.1 0.1-0.1 0.1-0.1 0.1-0.1 0-0.1 0.1-0.1 0-0.1 0.1-0.1 0.1-0.3 0.1-0.6 0-0.1 0-0.2 0-0.1-0.1-0.2 0 0 0-0.1 0-0.1 0-0.2c-0.8-2.7-2.6-5-3.9-7.6-0.8-1.5-1.5-3.1-2.3-4.6-2.8-5.1-7.5-9.2-12.7-11.8-5.3-2.6-11.2-3.9-17-4.2-6.8-0.4-13.6 0.4-20.4 1.5-2.9 0.6-5.8 1.2-8.4 2.6-1.3 0.7-2.5 1.7-3.4 2.8-0.9 1.2-1.6 2.6-1.8 4-0.2 1.4 0 2.9 0.5 4.2 0.5 1.3 1.3 2.6 2.2 3.7 1.8 2.2 4.1 3.9 6.2 5.8 2.1 1.9 4.1 4 6.5 5.6 1.2 0.8 2.4 1.4 3.8 1.8 1.4 0.4 2.9 0.5 4.2 0.2 1.5-0.3 2.8-1 4-1.9 1.2-0.9 2.2-2 3.1-3.1 2-2.2 3.8-4.7 6.3-6.2z"/></g><path class="a" d="m220.1 190.5c6.1 4.9 10 12.3 11.2 20 0.9 6 0.3 12.2-1.1 18.1-1.3 6-3.4 11.7-5.5 17.4-0.8 2.3-1.7 4.6-2 7-0.3 2.4-0.1 5 1 7.1 1.4 2.5 3.9 4.2 6.5 5 2.7 0.7 5.5 0.7 8.2 0.1 2.6-0.7 5.1-2 7.3-3.7 5.5-4.3 8.8-10.9 10.1-17.8 1.3-6.9 0.7-14-0.5-20.8-1.6-9.4-4.4-18.6-7.9-27.4-2.5-6.6-5.5-13-9.7-18.6-4.2-5.4-9.3-10.1-13.4-15.6-2.8-3.9-5-8.2-8.4-11.5-1.7-1.7-3.6-3.2-5.8-4-2.3-0.9-4.8-1.1-7.1-0.5-3 0.9-5.4 3.2-6.8 6.1-1.3 2.8-1.5 6.1-1 9.2 0.7 4 2.5 7.7 4.6 11.2 2.3 3.9 5 7.7 8.5 10.7 3.7 3 8.1 5 11.8 8z"/><g clip-path="url(#cp3)"><path class="y" d="m205.8 181.1q0.7 0.7 1.5 1.4c3.8 3 5.7 6.4 9.5 9.4 6.2 4.9 12.5 13.4 13.7 21.1 1 6-0.3 9.3-1.8 16.4-1.5 7.1-5.9 17.1-8.2 24-1 2.7 1.9 1.6 1.5 4.5q-0.1 0.5-0.1 1-0.1 0.5-0.1 1.1 0 0.5 0.1 1 0 0.6 0.1 1.1 0-0.4 0-0.8c0.5-3.9 1.7-7.7 3-11.4 2.5-7.1 5.4-14.1 7.4-21.4 2-7.3 1.8-12.6 0.7-18.9-1.3-7.9-5.9-15.1-12.4-20-4.6-3.4-10-5.5-14.9-8.5z"/></g><path class="z" d="m110.9 176.7c1 1.5-0.6 6.7 23.1 3.4 0 0-4.2 0.4-8.3 1.4-6.4 2.1-11.9 4.5-16.2 7.7-4.2 3.1-7.3 7.1-11.2 10.6 0 0 6.3-11.5 7.8-14.9 1.6-3.5-0.2-3.3 1-8.5 1.3-5.1 4.3-10 4.3-10 0 0-2.5 7.2-0.5 10.3z"/><path class="A" d="m187.1 175.3c-4.9 3.3-7.7 2.9-13.5 3.6-5.9 0.7-21.7 0.4-21.7 0.4 0 0 2.3 0 7.3 0.9 5.1 1 15.5 1.9 21.3 4.1 5.9 2.2 8 2.9 11.5 5.1 5.1 3.2 8.8 8.2 13.6 11.7 0 0 0.3-4.6-1.7-8.1-1.9-3.5-7.2-8.9-8.7-14.1-1.6-5.1-2.3-15.1-2.3-15.1 0 0-1 8.1-5.8 11.5z"/><path class="B" d="m141.7 168.1q-0.1 0.5-0.2 1.1 0 0.5-0.1 1.1-0.1 0.5-0.2 1.1-0.1 0.5-0.2 1c-0.2 0.8-0.3 1.5-0.6 2.1-0.2 0.7-0.6 1.4-1.2 1.8-0.4 0.5-1 0.8-1.6 1q-0.8 0.4-1.7 0.7-0.9 0.3-1.8 0.6-0.8 0.3-1.8 0.4-0.9 0.2-1.8 0.3 1.5 0.1 3 0.3c0.6 0.1 1.2 0.1 1.8 0.3 0.6 0.2 1.2 0.4 1.7 0.8 0.5 0.4 0.9 0.9 1.3 1.5 0.6 1.2 0.8 2.6 0.9 3.9q0.3 2.6 0.1 5.2 0.1-1.7 0.7-3.4c0.6-2 1.7-3.9 3.1-5.4q0.9-0.9 1.9-1.6 0.8-0.6 1.6-1 0.9-0.4 1.8-0.6 1-0.2 1.9-0.3 1 0 1.9 0.1-1 0-1.9-0.1-1-0.1-1.9-0.4-0.9-0.3-1.8-0.7-0.8-0.5-1.6-1c-1-0.8-1.9-1.8-2.6-2.9q-0.3-0.7-0.6-1.4-0.2-0.7-0.3-1.5-0.1-0.7 0-1.5 0-0.8 0.2-1.5z"/><path class="C" d="m135.5 202.1q-0.4 1.8-0.8 3.6-0.4 1.7-0.7 3.5-0.4 1.8-0.6 3.6-0.2 1.8-0.4 3.6c-0.7 6.8-0.5 13.7-0.9 20.5-0.3 5.8-1 11.7 0.1 17.4q0.1 1 0.4 2 0.2 1 0.6 2 0.3 1 0.7 2 0.4 0.9 0.8 1.9 0.3-1.5 0.4-2.9c0.5-4.6-0.3-9.3-0.6-13.9-0.4-8.2 0.7-16.3 1.1-24.5q0.6-9.4-0.1-18.8z"/><path class="D" d="m191.7 131.9c-2.2 2 1 5 2.5 8.4 1 2.2 3.5 5.2 6.1 4.7 1.8-0.3 3-3 2.8-4.9-0.3-3.7-3.4-4.6-5.7-5.9-1.8-1-4.2-3.7-5.7-2.3z"/><path class="E" d="m261.1 293.2q-0.2 0.6-0.4 1.2-0.3 0.5-0.5 1.1-0.3 0.5-0.6 1.1-0.3 0.5-0.6 1c-2.1 3-5 5.3-8 7.4-5 3.5-10.2 6.8-14.9 10.9-3.2 2.7-6 5.7-8.7 8.9-2.2 2.8-4.4 5.7-7 8.1-2.6 2.4-5.6 4.4-8.9 5.5-4.1 1.3-8.3 1.3-12.2 0.3-2.7-0.7-5.4-1.9-7-4.1-1.7-2.2-2.3-5.2-2.5-8.1-0.3-5.1 0.3-10.3 0.8-15.5 0.5-4.4 0.9-8.7 1.1-13 0.3-7.9-0.2-15.7-1.2-23.3-0.2-1.3-0.4-2.6-0.3-3.9 0.1-1.3 0.5-2.7 1.5-3.7 0.8-0.9 2-1.5 3.2-1.8 1.2-0.2 2.4-0.2 3.6-0.3 2.8 0 5.6-0.2 8.4 0 1.7 0.2 3.5 0.5 5.2 0.7 2.9 0.3 5.9 0.1 8.9-0.7 3.1-1 6.1-2.7 9.3-3.2q0.5 0 1-0.1 0.5 0 1 0 0.5 0 0.9 0 0.5 0.1 1 0.1c1.3 0.2 2.6 0.6 3.6 1.4 0.8 0.6 1.3 1.4 1.8 2.3 0.6 1.3 1 2.8 1.2 4.2 0.2 1.4 0.3 2.7 0.7 4 0.5 2.1 1.8 3.9 3.3 5.3 1.5 1.5 3.3 2.6 5.1 3.8 1.8 1.1 3.6 2.2 5.5 3.2 0.8 0.4 1.8 0.8 2.6 1.3 0.9 0.5 1.7 1.1 2.2 1.9 0.8 1.1 1.1 2.6 0.9 4z"/><g clip-path="url(#cp4)"><path class="F" d="m281 296.9q-0.2 0.7-0.5 1.3-0.3 0.6-0.7 1.2-0.3 0.6-0.8 1.2-0.4 0.5-0.8 1.1c-2.6 3.1-6.3 5.1-9.9 7-6.2 3.2-12.6 5.9-18.4 9.7-3.9 2.6-7.5 5.5-10.9 8.8-2.9 2.7-5.6 5.6-8.8 8-3.3 2.3-7 4-11 4.6-4.8 0.7-9.8-0.2-14.3-2.1-3.1-1.4-6.2-3.4-8-6.3-1.8-2.9-2.2-6.5-2.2-9.9 0-6.1 1.1-12.1 2.2-18.1 0.9-4.9 1.7-9.9 2.2-14.9 1-9.2 1-18.4 0.4-27.6-0.1-1.5-0.3-3 0-4.6 0.2-1.5 0.8-3 2-4 1.1-0.9 2.5-1.3 3.9-1.4 1.4-0.1 2.9 0.1 4.3 0.3 3.3 0.5 6.6 0.9 9.8 1.8 2.1 0.5 4.1 1.2 6.1 1.8 3.4 0.9 7 1.3 10.5 0.9 3.8-0.4 7.4-1.8 11.2-1.7 1.6 0 3.1 0.3 4.6 0.8 1.5 0.4 3 1.1 4.1 2.2 0.9 0.9 1.5 2 1.9 3.1 0.7 1.7 1 3.5 1.2 5.3 0.1 1.6 0.1 3.2 0.4 4.7 0.5 2.6 1.8 4.9 3.5 7 1.7 2 3.7 3.7 5.7 5.4 2 1.6 4 3.3 6.2 4.8 1 0.7 2 1.3 3 2.1 0.9 0.8 1.8 1.6 2.4 2.7q0.3 0.6 0.5 1.2 0.2 0.5 0.3 1.2 0.1 0.6 0.1 1.2 0 0.6-0.2 1.2z"/></g><g clip-path="url(#cp5)"><path class="G" d="m277.9 293.8q-0.2 0.6-0.5 1.1-0.3 0.6-0.6 1.1-0.3 0.6-0.7 1.1-0.4 0.5-0.8 0.9c-2.4 2.9-5.7 4.7-9 6.4-5.7 2.8-11.5 5.3-16.8 8.7-3.6 2.3-6.9 5-9.9 7.9-2.7 2.4-5.2 5.1-8.1 7.2-3 2.1-6.4 3.6-10 4.1-4.5 0.7-9-0.2-13.1-1.9-2.9-1.2-5.6-3-7.3-5.6-1.6-2.6-2-5.8-2-8.9 0-5.5 1-10.9 2-16.3 0.8-4.4 1.5-8.9 2-13.4 0.9-8.2 0.9-16.5 0.3-24.8-0.1-1.4-0.2-2.7 0-4.1 0.3-1.4 0.8-2.7 1.9-3.6 0.9-0.9 2.3-1.3 3.6-1.3 1.3-0.1 2.6 0.1 3.8 0.3 3.1 0.4 6.1 0.8 9.1 1.5 1.8 0.5 3.6 1.2 5.5 1.7 3.1 0.8 6.4 1.2 9.6 0.8 3.4-0.4 6.8-1.6 10.2-1.6 1.4 0.1 2.9 0.3 4.2 0.8 1.4 0.4 2.8 1 3.8 2 0.7 0.8 1.3 1.8 1.7 2.8 0.6 1.5 1 3.1 1.1 4.7 0 1.7-0.4 3.4-0.2 5.1 0.2 1.3 0.8 2.6 1.5 3.8 0.8 1.1 1.7 2.2 2.6 3.2 1.7 2.1 3.4 4.1 5.6 5.7 2.4 1.8 5.3 2.8 7.9 4.5 0.7 0.5 1.4 1 2 1.7q0.3 0.5 0.5 1 0.2 0.6 0.3 1.1 0.1 0.6 0 1.2 0 0.5-0.2 1.1z"/></g><g clip-path="url(#cp6)"><path class="H" d="m277.5 292q-0.2 0.6-0.5 1.2-0.3 0.6-0.6 1.1-0.4 0.5-0.7 1-0.4 0.6-0.8 1c-2.5 3-5.8 5.1-9.3 6.4-5.7 2.2-12 2.5-17.7 5-3.4 1.5-6.5 3.8-9.7 5.9-2.5 1.7-5.1 3.4-7.9 4.6-3.2 1.4-6.5 2.2-9.9 2.7-2.1 0.4-4.3 0.6-6.4 0.5-2.2-0.1-4.3-0.6-6.3-1.7-1.4-0.9-2.7-2.1-3.5-3.6-0.8-1.8-1-3.8-1-5.8 0.1-5.2 1.2-10.4 1.2-15.6 0-4.6-0.9-9-1.2-13.6-0.5-8.7 1.4-17.6-0.3-26.2-0.2-1.4-0.6-2.8-0.6-4.2q0-0.2 0-0.5 0.1-0.2 0.1-0.5 0.1-0.3 0.1-0.5 0.1-0.3 0.2-0.5c0.2-0.7 0.6-1.2 1.1-1.7 0.5-0.3 1-0.5 1.6-0.6q0.2 0 0.4-0.1 0.2 0 0.4 0 0.2 0 0.4 0 0.2 0.1 0.4 0.1c1.1 0.2 2.1 0.6 3.2 0.9 3 0.9 6.2 0.9 9.2 1.6 2 0.4 3.8 1.1 5.7 1.6 3.2 0.9 6.6 1.3 9.9 0.9 3.5-0.4 6.9-1.7 10.5-1.6 1.5 0 2.9 0.3 4.3 0.7 1.4 0.4 2.8 1 3.9 2.1 0.7 0.8 1.3 1.7 1.7 2.8 0.7 1.5 1.1 3.1 1.1 4.7 0 0.9-0.1 1.7-0.2 2.6-0.1 0.9-0.1 1.7 0.1 2.6 0.2 0.8 0.6 1.5 1.1 2.2 0.5 0.7 1.1 1.3 1.6 2 1.4 1.9 2.4 4.1 3.5 6.2 1.1 2.1 2.4 4.1 4.1 5.6 2.4 2.1 5.5 2.9 8.1 4.6 0.8 0.4 1.6 1 2.1 1.8 0.4 0.6 0.7 1.3 0.8 2.1 0.2 0.7 0.1 1.5-0.2 2.2z"/></g><path class="I" d="m202.3 255.7c3.3-0.9 6.1 1.6 8.5 3.5 1.5 1.3 3.7 1 5.6 1 3.1-0.1 6.2 0.5 9.3 0.2 6.2-0.6 12.2-2.1 18.4-2.3 2.9-0.2 6.3-0.4 8.8 1.3 1 0.8 2.5 3.8 3.6 2.6-0.5-3.1-2.8-6.2-6-7.1-2.4-0.3-5 0.3-7.5 0.1-7.4-0.2-14.8-1.5-22.2-1.1-5.2 0-10.3-0.2-15.5-0.4-2-0.5-2.8 1.3-3.9 2"/><path class="J" d="m217 195.3c1.2-0.2 8.5 6 7.5 8.4-1 2.3-2.9 0.9-4.2 0.9-1.4 0-5 1.7-5.7 0.6-0.6-1 1.7-3.5 2.9-5.6 0.9-1.6-1.7-4.1-0.5-4.3z"/><path class="K" d="m113.6 156.1c-0.1-1.5-2.2-1.7-3.1-1-0.8 0.6-1.5 2.7-0.8 3.5 1.1 1.3 4-0.6 3.9-2.5z"/><path class="L" d="m246.5 260.7c-0.6-1.1-1.6-1.9-2.7-2.4-1.2-0.5-2.4-0.6-3.7-0.6-2.4 0-4.9 0.6-7.4 0.4-2.1-0.1-4-0.9-6.1-1.4-2.1-0.5-4.3-0.7-6.4-0.2-2.2 0.6-4.2 2.1-5.4 4.1-1.1 1.7-1.6 3.7-1.7 5.8-0.2 2 0 4 0.2 6 0.1 1.5 0.3 3 0.6 4.4 0.4 1.4 0.9 2.8 1.8 4 1.2 1.7 3.1 3 5.1 3.7q1.2 0.4 2.5 0.7 1.3 0.2 2.6 0.1 1.3 0 2.5-0.2 1.3-0.3 2.5-0.8c5.7-2.4 10.5-6.8 13.4-12.3q0.4-0.7 0.7-1.5 0.4-0.7 0.7-1.5 0.3-0.8 0.5-1.6 0.3-0.7 0.5-1.5c0.2-0.9 0.3-1.8 0.3-2.6 0-0.9-0.1-1.8-0.5-2.6z"/><path class="M" d="m246.5 259.5c-0.6-0.7-1.6-1.3-2.7-1.7-1.2-0.3-2.4-0.4-3.7-0.4-2.4 0-4.9 0.4-7.4 0.3-2.1-0.1-4-0.7-6.1-1.1-2.1-0.3-4.3-0.5-6.4-0.1-2.2 0.5-4.2 1.5-5.4 3-1.1 1.2-1.6 2.7-1.7 4.1-0.2 1.5 0 3 0.2 4.4 0.1 1.1 0.3 2.2 0.6 3.2 0.4 1 0.9 2 1.8 2.9 1.2 1.2 3.1 2.1 5.1 2.6q1.2 0.4 2.5 0.5 1.3 0.2 2.6 0.2 1.3-0.1 2.5-0.2 1.3-0.2 2.5-0.6c5.7-1.8 10.5-4.9 13.4-8.9q0.4-0.5 0.7-1 0.4-0.6 0.7-1.1 0.3-0.6 0.5-1.2 0.3-0.5 0.5-1.1c0.2-0.6 0.3-1.3 0.3-1.9 0-0.6-0.1-1.3-0.5-1.9z"/><path class="a" d="m251.2 250.4c-0.4-1.1-1.1-2.1-2-2.9-0.9-0.8-1.9-1.4-3-1.8-2.1-0.9-4.5-1.3-6.8-1.7-2.2-0.4-4.3-0.9-6.5-1.3-2.3-0.4-4.7-0.6-6.9-0.1-2 0.4-3.8 1.4-5.3 2.8-1.5 1.3-2.6 3-3.5 4.9-1.4 3.2-1.9 6.8-1.6 10.4 0.2 2.6 0.9 5.3 2.6 7.3 1.4 1.6 3.4 2.6 5.4 3.2q1.4 0.4 2.7 0.6 1.4 0.2 2.8 0.2 1.4 0 2.7-0.3 1.4-0.2 2.7-0.6 2.2-0.7 4.2-1.8 2-1.1 3.8-2.4 1.9-1.4 3.4-3.1 1.6-1.6 2.9-3.5c1.2-1.6 2.1-3.4 2.6-5.4 0.3-1.5 0.3-3.1-0.2-4.5z"/><g clip-path="url(#cp7)"><path class="N" d="m227.2 241.5q-0.8 0.1-1.6 0.2c-3.5 0.6-6.6 2.8-8.4 5.9q-0.5 0.8-0.8 1.6-0.4 0.9-0.6 1.8-0.2 0.9-0.3 1.8-0.1 1 0 1.9c0.1-1.7 0.5-3.4 1.4-5 1.4-2.5 4-4.5 6.9-5 1.8-0.4 3.7-0.2 5.5 0.1 1.7 0.2 3.4 0.4 5.2 0.8 2.6 0.6 5.2 1.4 7.4 3q0.8 0.5 1.4 1.2c0.4 0.5 0.7 1.1 0.9 1.7 0.1 0.9-0.1 1.8-0.6 2.6-0.4 0.8-1 1.6-1.7 2.2q-0.2 0.2-0.4 0.4-0.2 0.2-0.4 0.4-0.2 0.2-0.4 0.4-0.2 0.1-0.4 0.3c2.5-0.5 5.1-1.2 7.2-2.7 0.9-0.6 1.8-1.3 2.3-2.3 0.5-1 0.8-2.1 0.5-3.2-0.2-0.7-0.6-1.4-1.1-1.9-0.5-0.6-1-1-1.7-1.5q-1-0.7-2-1.2-1.1-0.6-2.3-1.1-1.1-0.4-2.3-0.7-1.2-0.3-2.4-0.4-0.8-0.2-1.6-0.3-0.8-0.1-1.6-0.3-0.7-0.1-1.5-0.2-0.8-0.1-1.6-0.2c-1.6-0.2-3.3-0.4-5-0.3z"/></g><g clip-path="url(#cp8)"><path class="O" d="m227.2 241.5q-0.8 0.1-1.6 0.2c-3.5 0.6-6.6 2.8-8.4 5.9q-0.5 0.8-0.8 1.6-0.4 0.9-0.6 1.8-0.2 0.9-0.3 1.8-0.1 1 0 1.9c0.1-1.7 0.5-3.4 1.4-5 1.4-2.5 4-4.5 6.9-5 1.8-0.4 3.7-0.2 5.5 0.1 1.7 0.2 3.4 0.4 5.2 0.8 2.6 0.6 5.2 1.4 7.4 3q0.8 0.5 1.4 1.2c0.4 0.5 0.7 1.1 0.9 1.7 0.1 0.9-0.1 1.8-0.6 2.6-0.4 0.8-1 1.6-1.7 2.2q-0.2 0.2-0.4 0.4-0.2 0.2-0.4 0.4-0.2 0.2-0.4 0.4-0.2 0.1-0.4 0.3c2.5-0.5 5.1-1.2 7.2-2.7 0.9-0.6 1.8-1.3 2.3-2.3 0.5-1 0.8-2.1 0.5-3.2-0.2-0.7-0.6-1.4-1.1-1.9-0.5-0.6-1-1-1.7-1.5q-1-0.7-2-1.2-1.1-0.6-2.3-1.1-1.1-0.4-2.3-0.7-1.2-0.3-2.4-0.4-0.8-0.2-1.6-0.3-0.8-0.1-1.6-0.3-0.7-0.1-1.5-0.2-0.8-0.1-1.6-0.2c-1.6-0.2-3.3-0.4-5-0.3z"/></g><path class="a" d="m113.5 149.5q-1 1.3-2.1 2.6-1 1.3-2.1 2.6-1 1.3-2 2.6-1.1 1.3-2.1 2.6-4.3 5.4-8.6 10.8c-3.5 4.4-7.2 8.8-9.5 13.9-1.9 4.4-2.9 9.2-4.2 13.9-1.6 5.2-3.7 10.3-6 15.3-2.2 4.6-4.5 9.1-6.9 13.5-1.8 3.3-3.5 6.6-4.1 10.2-0.5 2.9-0.2 5.9 0.5 8.7 0.7 2.8 1.9 5.5 3.2 8.1 5.7 11.1 14.2 20.6 24.3 27.9q1.7 1.3 3.5 2.4 1.7 1.2 3.6 2.3 1.8 1 3.7 2 1.8 1 3.8 1.9c2.8 1.2 5.7 2.4 8.7 2.4 1.6 0.1 3.1-0.2 4.5-0.8 1.4-0.6 2.7-1.6 3.5-2.9 1-1.6 1.4-3.5 1.2-5.4-0.2-1.9-1-3.7-1.9-5.3-2.4-3.9-6.2-6.7-9.8-9.5-7.9-6.1-15.5-12.5-22.7-19.3-2.1-1.9-4.1-3.9-5.6-6.3-1.3-2.3-2.1-5-2.6-7.7-1.4-7.3-1.1-15 1.4-22.1 1-2.8 2.3-5.4 3.6-8 2.1-4.6 4.2-9.3 7-13.5 3.6-5.2 8.3-9.7 11.2-15.3 2.4-4.7 3.4-10 4.3-15.3q1.1-6.2 2.2-12.3z"/><g clip-path="url(#cp9)"><path class="P" d="m97.3 189.3q-0.8 0.8-1.6 1.7-0.9 0.9-1.6 1.8-0.7 0.9-1.4 1.9-0.7 0.9-1.3 2c-2.7 4.4-4.3 9.4-6.2 14.2-1.4 3.6-3.1 7.2-3.3 11.1-0.1 2 0.2 4 0.2 5.9 0.1 2-0.1 4.1-1 5.8q-0.4 0.6-0.8 1.1-0.4 0.4-0.8 0.8-0.5 0.4-1.1 0.8-0.5 0.3-1.1 0.5 0.8 0.2 1.6 0.6 0.7 0.4 1.4 0.9 0.7 0.5 1.3 1.1 0.6 0.6 1.1 1.2c1.1 1.5 1.8 3.3 2.8 4.9 0.7 1.3 1.7 2.5 2.9 3.4 1.2 1 2.6 1.7 4.1 1.8q0.8 0.1 1.6 0.1 0.7-0.1 1.5-0.3 0.7-0.3 1.4-0.7 0.7-0.4 1.3-0.9-0.7-6.8-0.8-13.6 0-6.8 0.6-13.6 0.7-6.7 2-13.4 1.3-6.7 3.3-13.2c0.4-1.1 0.7-2.2 0.8-3.3 0.1-1.2-0.1-2.4-0.8-3.3q-0.2-0.2-0.3-0.3-0.2-0.2-0.4-0.3-0.2-0.2-0.3-0.3-0.2-0.1-0.5-0.2-0.2-0.1-0.4-0.1-0.2-0.1-0.4-0.1-0.3-0.1-0.5-0.1-0.2 0-0.5 0-0.2 0.1-0.4 0.1-0.2 0.1-0.4 0.2-0.2 0.1-0.4 0.2-0.2 0.1-0.4 0.2c-0.5 0.4-0.9 0.9-1.2 1.4z"/></g><g clip-path="url(#cp10)"><path class="Q" d="m72.6 246.1c1.6-0.7 3.4-0.8 5.1-0.5 1.7 0.3 3.3 1.1 4.7 2 2.9 2 5 4.8 7.1 7.6 4.6 6.4 9.1 13 13.2 19.8 3.3 5.6 6.3 11.3 10.2 16.5 2.5 3.4 5.3 6.5 7.8 9.9 2.5 3.4 4.7 7.1 5.8 11.1 1.5 5.3 0.9 11.1-1.6 16-1.8 3.4-4.5 6.3-7.8 8.3-3.3 2-7.2 3-11 2.9-6.1-0.2-11.7-3.3-17.4-5.6-11.6-4.6-24.1-6-36.1-9.6-3.6-1.1-7.3-2.4-10.9-3.4-1.7-0.5-3.4-0.9-4.9-1.6-1.6-0.7-3-1.7-3.9-3.2-0.6-1.1-0.9-2.5-0.9-3.8 0-1.3 0.3-2.6 0.8-3.8 0.9-2.5 2.3-4.7 3.3-7.2 1.6-4 1.9-8.4 1.7-12.7-0.3-4.3-0.9-8.5-1.2-12.8-0.2-1.9-0.2-3.9 0.1-5.7 0.4-1.9 1.2-3.8 2.6-5.1 1.3-1.2 3-1.9 4.7-2.3 1.7-0.4 3.5-0.4 5.3-0.3 1.7 0 3.5 0.1 5.3-0.1 1.7-0.1 3.5-0.5 5.1-1.4 1.4-0.8 2.6-2.1 3.6-3.4 1-1.4 1.8-2.9 2.6-4.3 0.8-1.5 1.7-3 2.7-4.3 1.1-1.2 2.4-2.4 4-3z"/><path class="R" d="m75.1 248.8c1.5-0.5 3.1-0.6 4.6-0.3 1.6 0.4 3 1.1 4.2 2.1 2.5 1.9 4.2 4.6 5.9 7.3 4 6.4 7.8 12.9 11.5 19.5 2.8 5 5.4 10.1 8.8 14.7 2.3 3 4.9 5.8 7.2 8.8 2.3 3 4.4 6.3 5.4 10 1.3 4.7 0.8 9.9-1.5 14.2q-0.6 1.2-1.4 2.2-0.8 1.1-1.7 2.1-0.9 0.9-1.9 1.7-1.1 0.8-2.2 1.5-1.1 0.7-2.4 1.2-1.2 0.5-2.5 0.8-1.2 0.3-2.5 0.4-1.4 0.2-2.7 0.1c-5.6-0.3-10.7-3-16-4.9-10.1-3.7-21-4.2-31.4-7.1-3.7-1-7.3-2.3-11-3.3-1.7-0.4-3.4-0.7-4.9-1.4-1.6-0.6-3.1-1.7-3.9-3.1-0.7-1.1-0.9-2.4-0.9-3.7 0.1-1.3 0.4-2.5 0.8-3.7 0.9-2.4 2.3-4.5 3.3-6.9 1.3-3.5 1.5-7.5 1.2-11.3-0.2-3.8-0.9-7.6-1.1-11.4-0.1-1.7-0.1-3.5 0.2-5.1 0.4-1.7 1.1-3.4 2.3-4.6 1.3-1.3 3.2-2 5-2.3 1.8-0.2 3.7-0.1 5.5 0 1.9 0.2 3.7 0.4 5.6 0.3 1.9-0.1 3.7-0.6 5.3-1.6 1.4-0.9 2.4-2.3 3.2-3.8 0.8-1.5 1.4-3.1 2-4.6 0.6-1.6 1.3-3.1 2.2-4.5 1-1.4 2.3-2.6 3.8-3.3z"/><path class="S" d="m73.8 245.2c1.4-0.7 3-0.8 4.6-0.5 1.5 0.3 3 1.1 4.2 2 2.4 2 4 4.8 5.4 7.6 3.3 6.3 6.4 12.8 10.3 18.8 2.9 4.3 6.2 8.3 9.1 12.6 4 5.9 7.2 12.3 8.5 19.2 0.9 4.6 0.8 9.6-1.4 13.8-1.5 2.8-3.9 5-6.7 6.4-2.8 1.4-6 2-9.2 1.7-4.9-0.4-9.4-2.9-14.1-4.6-8.2-3-17.2-3.7-25.7-6-3.6-0.9-7.1-2.2-10.8-2.9-1.6-0.4-3.2-0.6-4.7-1.2-1.6-0.6-3-1.5-3.8-2.9-0.6-1-0.7-2.2-0.7-3.3 0.1-1.2 0.5-2.3 0.9-3.3 0.9-2.1 2.2-4 2.9-6.2 1-3.2 0.6-6.6-0.2-9.9-0.7-3.2-1.8-6.4-2.2-9.7-0.1-1.5-0.1-3 0.2-4.5 0.4-1.4 1.1-2.8 2.1-3.9 1.4-1.3 3.4-2 5.3-2.1 2-0.2 3.9 0 5.8 0.3 2 0.3 3.9 0.6 5.9 0.5 1.9-0.1 3.9-0.6 5.4-1.8 1.5-1.2 2.5-2.9 3-4.7 0.6-1.9 0.7-3.8 1-5.6 0.2-1.9 0.5-3.8 1.2-5.6 0.7-1.7 1.9-3.3 3.7-4.2z"/><path class="T" d="m91.4 261c2.6 4.7 4.2 10.2 6.8 14.9 2.4 4.4 5.1 8.9 7.5 12.9 1.1 1.8 3.6 4.6 6.1 8.9 2.3 3.8 4.6 9.2 5.9 11.1-0.7-2.2-2.2-7.9-4.1-12-1.7-3.8-3.7-5.9-4.9-8-2.4-4-5-7.6-7.5-11.5-3.4-5.3-6-11.2-9.8-16.3z"/></g></svg>