<?xml version="1.0" encoding="UTF-8"?> <svg xmlns="http://www.w3.org/2000/svg" width="1000" height="828" viewBox="0 0 1000 828" fill="none"><path d="M460.173 365.399C460.173 349.549 447.26 336.7 431.331 336.7H261.753L563.334 0V180.802C563.334 196.653 576.247 209.502 592.176 209.502H761.753L460.173 546.202V365.399Z" fill="url(#paint0_linear_250_8740)"></path><path fill-rule="evenodd" clip-rule="evenodd" d="M1000 494.467C959.038 593.019 889.672 677.252 800.672 736.516C711.673 795.779 607.039 827.411 500 827.411C392.962 827.411 288.327 795.779 199.328 736.516C110.328 677.252 40.9619 593.019 0 494.467L123.596 443.448C154.432 517.638 206.652 581.05 273.651 625.664C340.651 670.278 419.42 694.091 500 694.091C580.58 694.091 659.35 670.278 726.349 625.664C793.348 581.05 845.568 517.638 876.405 443.447L1000 494.467Z" fill="url(#paint1_linear_250_8740)"></path><defs><linearGradient id="paint0_linear_250_8740" x1="0" y1="413.706" x2="1000" y2="413.706" gradientUnits="userSpaceOnUse"><stop stop-color="#FB11C0"></stop><stop offset="0.47489" stop-color="#FE3F1B"></stop><stop offset="1" stop-color="#FBC400"></stop></linearGradient><linearGradient id="paint1_linear_250_8740" x1="0" y1="413.706" x2="1000" y2="413.706" gradientUnits="userSpaceOnUse"><stop stop-color="#FB11C0"></stop><stop offset="0.47489" stop-color="#FE3F1B"></stop><stop offset="1" stop-color="#FBC400"></stop></linearGradient></defs></svg> 